<mxfile host="65bd71144e">
    <diagram id="qUkAPRQlvikeLnpUgmCC" name="Functionalities">
        <mxGraphModel dx="1141" dy="654" grid="1" gridSize="10" guides="1" tooltips="1" connect="1" arrows="1" fold="1" page="1" pageScale="1" pageWidth="1169" pageHeight="827" math="0" shadow="0">
            <root>
                <mxCell id="0"/>
                <mxCell id="1" parent="0"/>
                <mxCell id="2" value="SerialPortsManager" style="swimlane;fillColor=#3B3B3B;fontColor=#DEDEDE;labelBackgroundColor=none;strokeColor=#7D7D7D;" parent="1" vertex="1">
                    <mxGeometry x="20" y="130" width="350" height="470" as="geometry"/>
                </mxCell>
                <mxCell id="4" value="Get the list of ports connected to the machine" style="rounded=1;whiteSpace=wrap;html=1;absoluteArcSize=1;arcSize=14;strokeWidth=2;fillColor=#f0a30a;fontColor=#000000;strokeColor=#BD7000;fontStyle=1" parent="2" vertex="1">
                    <mxGeometry x="20" y="40" width="140" height="50" as="geometry"/>
                </mxCell>
                <mxCell id="5" value="Get the list of currently used ports" style="rounded=1;whiteSpace=wrap;html=1;absoluteArcSize=1;arcSize=14;strokeWidth=2;fillColor=#f0a30a;fontColor=#000000;strokeColor=#BD7000;fontStyle=1" parent="2" vertex="1">
                    <mxGeometry x="20" y="100" width="140" height="50" as="geometry"/>
                </mxCell>
                <mxCell id="6" value="Get serial port by ID" style="rounded=1;whiteSpace=wrap;html=1;absoluteArcSize=1;arcSize=14;strokeWidth=2;fillColor=#f0a30a;fontColor=#000000;strokeColor=#BD7000;fontStyle=1" parent="2" vertex="1">
                    <mxGeometry x="20" y="160" width="140" height="50" as="geometry"/>
                </mxCell>
                <mxCell id="13" value="Close a serial port by ID" style="rounded=1;whiteSpace=wrap;html=1;absoluteArcSize=1;arcSize=14;strokeWidth=2;fillColor=#f0a30a;fontColor=#000000;strokeColor=#BD7000;fontStyle=1" parent="2" vertex="1">
                    <mxGeometry x="20" y="340" width="140" height="50" as="geometry"/>
                </mxCell>
                <mxCell id="15" value="Re-open a serial port by ID, with specific configuration" style="rounded=1;whiteSpace=wrap;html=1;absoluteArcSize=1;arcSize=14;strokeWidth=2;fillColor=#f0a30a;fontColor=#000000;strokeColor=#BD7000;fontStyle=1" parent="2" vertex="1">
                    <mxGeometry x="20" y="280" width="140" height="50" as="geometry"/>
                </mxCell>
                <mxCell id="14" value="Open a serial port by ID with specific configuration" style="rounded=1;whiteSpace=wrap;html=1;absoluteArcSize=1;arcSize=14;strokeWidth=2;fillColor=#f0a30a;fontColor=#000000;strokeColor=#BD7000;fontStyle=1" parent="2" vertex="1">
                    <mxGeometry x="20" y="220" width="140" height="50" as="geometry"/>
                </mxCell>
                <mxCell id="66" value="Keep track of ports used by the application" style="rounded=1;whiteSpace=wrap;html=1;absoluteArcSize=1;arcSize=14;strokeWidth=2;fillColor=#008a00;fontColor=#ffffff;strokeColor=#005700;" parent="2" vertex="1">
                    <mxGeometry x="190" y="40" width="140" height="50" as="geometry"/>
                </mxCell>
                <mxCell id="63" value="Get information about serial port and it's configuration" style="rounded=1;whiteSpace=wrap;html=1;absoluteArcSize=1;arcSize=14;strokeWidth=2;fillColor=#f0a30a;fontColor=#000000;strokeColor=#BD7000;fontStyle=1" parent="2" vertex="1">
                    <mxGeometry x="20" y="400" width="141" height="50" as="geometry"/>
                </mxCell>
                <mxCell id="142" value="Update internal state on SerialPort notification" style="rounded=1;whiteSpace=wrap;html=1;absoluteArcSize=1;arcSize=14;strokeWidth=2;fillColor=#76608a;fontColor=#ffffff;strokeColor=#432D57;" parent="2" vertex="1">
                    <mxGeometry x="190.00000000000023" y="110" width="140" height="50" as="geometry"/>
                </mxCell>
                <mxCell id="26" value="Functions provided by the class, callable from outside" style="rounded=1;whiteSpace=wrap;html=1;absoluteArcSize=1;arcSize=14;strokeWidth=2;fillColor=#f0a30a;fontColor=#000000;strokeColor=#BD7000;" parent="1" vertex="1">
                    <mxGeometry x="20" y="30" width="140" height="50" as="geometry"/>
                </mxCell>
                <mxCell id="27" value="Notifications about the internal state change" style="rounded=1;whiteSpace=wrap;html=1;absoluteArcSize=1;arcSize=14;strokeWidth=2;fillColor=#6a00ff;fontColor=#ffffff;strokeColor=#3700CC;" parent="1" vertex="1">
                    <mxGeometry x="180" y="30" width="140" height="50" as="geometry"/>
                </mxCell>
                <mxCell id="29" value="Responsibilities and constraints that the class manages" style="rounded=1;whiteSpace=wrap;html=1;absoluteArcSize=1;arcSize=14;strokeWidth=2;fillColor=#008a00;fontColor=#ffffff;strokeColor=#005700;" parent="1" vertex="1">
                    <mxGeometry x="340" y="30" width="140" height="50" as="geometry"/>
                </mxCell>
                <mxCell id="47" value="" style="endArrow=classic;html=1;strokeColor=#858585;" parent="1" edge="1">
                    <mxGeometry relative="1" as="geometry">
                        <mxPoint x="370" y="170" as="sourcePoint"/>
                        <mxPoint x="490" y="170" as="targetPoint"/>
                    </mxGeometry>
                </mxCell>
                <mxCell id="48" value="Creates" style="edgeLabel;resizable=0;html=1;align=center;verticalAlign=middle;labelBackgroundColor=#3B3B3B;fontColor=#DEDEDE;" parent="47" connectable="0" vertex="1">
                    <mxGeometry relative="1" as="geometry"/>
                </mxCell>
                <mxCell id="56" value="SerialPort" style="swimlane;glass=0;fillColor=#3B3B3B;strokeColor=#7D7D7D;fontColor=#DEDEDE;labelBackgroundColor=none;" parent="1" vertex="1">
                    <mxGeometry x="490" y="130" width="1530" height="990" as="geometry"/>
                </mxCell>
                <mxCell id="57" value="Transmit the data over serial port" style="rounded=1;whiteSpace=wrap;html=1;absoluteArcSize=1;arcSize=14;strokeWidth=2;fillColor=#f0a30a;fontColor=#000000;strokeColor=#BD7000;" parent="56" vertex="1">
                    <mxGeometry x="30" y="110" width="140" height="50" as="geometry"/>
                </mxCell>
                <mxCell id="61" value="Get/Set the data converter" style="rounded=1;whiteSpace=wrap;html=1;absoluteArcSize=1;arcSize=14;strokeWidth=2;fillColor=#f0a30a;fontColor=#000000;strokeColor=#BD7000;" parent="56" vertex="1">
                    <mxGeometry x="30" y="470" width="140" height="50" as="geometry"/>
                </mxCell>
                <mxCell id="89" value="Clear data buffers" style="rounded=1;whiteSpace=wrap;html=1;absoluteArcSize=1;arcSize=14;strokeWidth=2;fillColor=#f0a30a;fontColor=#000000;strokeColor=#BD7000;" parent="56" vertex="1">
                    <mxGeometry x="30" y="170" width="140" height="50" as="geometry"/>
                </mxCell>
                <mxCell id="37" value="SerialValueBuffer" style="swimlane;fontStyle=1;fillColor=#3B3B3B;strokeColor=#7D7D7D;fontColor=#DEDEDE;labelBackgroundColor=none;" parent="56" vertex="1">
                    <mxGeometry x="400" y="470" width="1110" height="510" as="geometry"/>
                </mxCell>
                <mxCell id="38" value="Attach to the serial port" style="rounded=1;whiteSpace=wrap;html=1;absoluteArcSize=1;arcSize=14;strokeWidth=2;fillColor=#f0a30a;fontColor=#000000;strokeColor=#BD7000;fontStyle=1" parent="37" vertex="1">
                    <mxGeometry x="20" y="40" width="140" height="50" as="geometry"/>
                </mxCell>
                <mxCell id="54" value="Notify about new value" style="rounded=1;whiteSpace=wrap;html=1;absoluteArcSize=1;arcSize=14;strokeWidth=2;fillColor=#6a00ff;fontColor=#ffffff;strokeColor=#3700CC;fontStyle=0" parent="37" vertex="1">
                    <mxGeometry x="190" y="40" width="140" height="50" as="geometry"/>
                </mxCell>
                <mxCell id="95" value="Get a copy of buffered values" style="rounded=1;whiteSpace=wrap;html=1;absoluteArcSize=1;arcSize=14;strokeWidth=2;fillColor=#f0a30a;fontColor=#000000;strokeColor=#BD7000;" parent="37" vertex="1">
                    <mxGeometry x="19" y="220" width="140" height="50" as="geometry"/>
                </mxCell>
                <mxCell id="96" value="Clear buffered values" style="rounded=1;whiteSpace=wrap;html=1;absoluteArcSize=1;arcSize=14;strokeWidth=2;fillColor=#f0a30a;fontColor=#000000;strokeColor=#BD7000;" parent="37" vertex="1">
                    <mxGeometry x="170" y="220" width="140" height="50" as="geometry"/>
                </mxCell>
                <mxCell id="98" value="Get the amount of currently buffered values" style="rounded=1;whiteSpace=wrap;html=1;absoluteArcSize=1;arcSize=14;strokeWidth=2;fillColor=#f0a30a;fontColor=#000000;strokeColor=#BD7000;" parent="37" vertex="1">
                    <mxGeometry x="19" y="280" width="140" height="50" as="geometry"/>
                </mxCell>
                <mxCell id="115" value="Clear the value buffer and convert the content of byte buffer into it" style="rounded=1;whiteSpace=wrap;html=1;absoluteArcSize=1;arcSize=14;strokeWidth=2;fillColor=#f0a30a;fontColor=#000000;strokeColor=#BD7000;fontStyle=1" parent="37" vertex="1">
                    <mxGeometry x="170" y="280" width="160" height="60" as="geometry"/>
                </mxCell>
                <mxCell id="62" value="Get information about data converter" style="rounded=1;whiteSpace=wrap;html=1;absoluteArcSize=1;arcSize=14;strokeWidth=2;fillColor=#f0a30a;fontColor=#000000;strokeColor=#BD7000;" parent="37" vertex="1">
                    <mxGeometry x="19.5" y="160" width="141" height="50" as="geometry"/>
                </mxCell>
                <mxCell id="199" value="DataConverter (abstract)" style="swimlane;shadow=0;glass=0;sketch=0;fontStyle=2;fillColor=#3B3B3B;strokeColor=#7D7D7D;fontColor=#DEDEDE;labelBackgroundColor=none;" parent="37" vertex="1">
                    <mxGeometry x="740" y="40" width="360" height="220" as="geometry"/>
                </mxCell>
                <mxCell id="53" value="Configure the details of message format" style="rounded=1;whiteSpace=wrap;html=1;absoluteArcSize=1;arcSize=14;strokeWidth=2;fillColor=#f0a30a;fontColor=#000000;strokeColor=#BD7000;fontStyle=3" parent="199" vertex="1">
                    <mxGeometry x="20" y="47" width="140" height="50" as="geometry"/>
                </mxCell>
                <mxCell id="151" value="When end-of-message condition is detected, convert the bytes to value and add it to the value buffer" style="rounded=1;whiteSpace=wrap;html=1;absoluteArcSize=1;arcSize=14;strokeWidth=2;fillColor=#647687;fontColor=#ffffff;strokeColor=#314354;fontStyle=2" parent="199" vertex="1">
                    <mxGeometry x="190" y="120" width="150" height="80" as="geometry"/>
                </mxCell>
                <mxCell id="49" value="Track the data in attached byte buffer, looking for specific end-of-message condition" style="rounded=1;whiteSpace=wrap;html=1;absoluteArcSize=1;arcSize=14;strokeWidth=2;fillColor=#008a00;fontColor=#ffffff;strokeColor=#005700;sketch=0;shadow=0;glass=0;fontStyle=2" parent="199" vertex="1">
                    <mxGeometry x="190" y="42" width="150" height="60" as="geometry"/>
                </mxCell>
                <mxCell id="230" value="Get information about data converter" style="rounded=1;whiteSpace=wrap;html=1;absoluteArcSize=1;arcSize=14;strokeWidth=2;fillColor=#f0a30a;fontColor=#000000;strokeColor=#BD7000;fontStyle=3" parent="199" vertex="1">
                    <mxGeometry x="20" y="110" width="140" height="50" as="geometry"/>
                </mxCell>
                <mxCell id="215" value="Get/Set data converter" style="rounded=1;whiteSpace=wrap;html=1;absoluteArcSize=1;arcSize=14;strokeWidth=2;fillColor=#f0a30a;fontColor=#000000;strokeColor=#BD7000;shadow=0;glass=0;sketch=0;fontStyle=1" parent="37" vertex="1">
                    <mxGeometry x="19" y="100" width="140" height="50" as="geometry"/>
                </mxCell>
                <mxCell id="220" value="Get/Set new value notification threshold/event" style="rounded=1;whiteSpace=wrap;html=1;absoluteArcSize=1;arcSize=14;strokeWidth=2;fillColor=#f0a30a;fontColor=#000000;strokeColor=#BD7000;" parent="37" vertex="1">
                    <mxGeometry x="170" y="160" width="140" height="50" as="geometry"/>
                </mxCell>
                <mxCell id="221" value="ValueBuffer (DataBuffer)" style="swimlane;startSize=23;fillColor=#6d8764;fontColor=#ffffff;strokeColor=#3A5431;" parent="37" vertex="1">
                    <mxGeometry x="360" y="40" width="360" height="340" as="geometry"/>
                </mxCell>
                <mxCell id="222" value="Get a copy of buffered data" style="rounded=1;whiteSpace=wrap;html=1;absoluteArcSize=1;arcSize=14;strokeWidth=2;fillColor=#f0a30a;fontColor=#000000;strokeColor=#BD7000;fontStyle=1" parent="221" vertex="1">
                    <mxGeometry x="20" y="40" width="140" height="50" as="geometry"/>
                </mxCell>
                <mxCell id="223" value="Clear buffered data" style="rounded=1;whiteSpace=wrap;html=1;absoluteArcSize=1;arcSize=14;strokeWidth=2;fillColor=#f0a30a;fontColor=#000000;strokeColor=#BD7000;fontStyle=1" parent="221" vertex="1">
                    <mxGeometry x="20" y="160" width="140" height="50" as="geometry"/>
                </mxCell>
                <mxCell id="224" value="Add new data to buffer" style="rounded=1;whiteSpace=wrap;html=1;absoluteArcSize=1;arcSize=14;strokeWidth=2;fillColor=#f0a30a;fontColor=#000000;strokeColor=#BD7000;fontStyle=1" parent="221" vertex="1">
                    <mxGeometry x="20" y="100" width="140" height="50" as="geometry"/>
                </mxCell>
                <mxCell id="225" value="Get the amount of currently buffered data" style="rounded=1;whiteSpace=wrap;html=1;absoluteArcSize=1;arcSize=14;strokeWidth=2;fillColor=#f0a30a;fontColor=#000000;strokeColor=#BD7000;fontStyle=1" parent="221" vertex="1">
                    <mxGeometry x="20" y="220" width="140" height="50" as="geometry"/>
                </mxCell>
                <mxCell id="226" value="Buffer incoming data" style="rounded=1;whiteSpace=wrap;html=1;absoluteArcSize=1;arcSize=14;strokeWidth=2;fillColor=#008a00;fontColor=#ffffff;strokeColor=#005700;" parent="221" vertex="1">
                    <mxGeometry x="190" y="40" width="140" height="50" as="geometry"/>
                </mxCell>
                <mxCell id="227" value="Notify about new data" style="rounded=1;whiteSpace=wrap;html=1;absoluteArcSize=1;arcSize=14;strokeWidth=2;fillColor=#6a00ff;fontColor=#ffffff;strokeColor=#3700CC;fontStyle=1" parent="221" vertex="1">
                    <mxGeometry x="190" y="110" width="140" height="50" as="geometry"/>
                </mxCell>
                <mxCell id="228" value="Allow setting notification threshold/event based on data or time" style="rounded=1;whiteSpace=wrap;html=1;absoluteArcSize=1;arcSize=14;strokeWidth=2;fillColor=#a20025;strokeColor=#6F0000;fontColor=#ffffff;" parent="221" vertex="1">
                    <mxGeometry x="190" y="180" width="160" height="50" as="geometry"/>
                </mxCell>
                <mxCell id="229" value="Get/Set new data notification threshold/event" style="rounded=1;whiteSpace=wrap;html=1;absoluteArcSize=1;arcSize=14;strokeWidth=2;fillColor=#f0a30a;fontColor=#000000;strokeColor=#BD7000;fontStyle=1" parent="221" vertex="1">
                    <mxGeometry x="20" y="280" width="140" height="50" as="geometry"/>
                </mxCell>
                <mxCell id="133" value="Notify about new value from serial port" style="rounded=1;whiteSpace=wrap;html=1;absoluteArcSize=1;arcSize=14;strokeWidth=2;fillColor=#6a00ff;fontColor=#ffffff;strokeColor=#3700CC;" parent="56" vertex="1">
                    <mxGeometry x="200" y="50" width="140" height="50" as="geometry"/>
                </mxCell>
                <mxCell id="17" value="SerialPortIO" style="swimlane;fillColor=#3B3B3B;strokeColor=#7D7D7D;fontColor=#DEDEDE;labelBackgroundColor=none;" parent="56" vertex="1">
                    <mxGeometry x="400" y="40" width="740" height="390" as="geometry"/>
                </mxCell>
                <mxCell id="20" value="Transmit the data over serial port" style="rounded=1;whiteSpace=wrap;html=1;absoluteArcSize=1;arcSize=14;strokeWidth=2;fillColor=#f0a30a;fontColor=#000000;strokeColor=#BD7000;fontStyle=1" parent="17" vertex="1">
                    <mxGeometry x="20" y="40" width="140" height="50" as="geometry"/>
                </mxCell>
                <mxCell id="30" value="Notify about new data" style="rounded=1;whiteSpace=wrap;html=1;absoluteArcSize=1;arcSize=14;strokeWidth=2;fillColor=#6a00ff;fontColor=#ffffff;strokeColor=#3700CC;fontStyle=0" parent="17" vertex="1">
                    <mxGeometry x="190" y="40" width="140" height="50" as="geometry"/>
                </mxCell>
                <mxCell id="65" value="Make sure that port is successfully closed when this object is destroyed" style="rounded=1;whiteSpace=wrap;html=1;absoluteArcSize=1;arcSize=14;strokeWidth=2;fillColor=#008a00;fontColor=#ffffff;strokeColor=#005700;" parent="17" vertex="1">
                    <mxGeometry x="190" y="110" width="140" height="50" as="geometry"/>
                </mxCell>
                <mxCell id="31" value="ByteBuffer (DataBuffer)" style="swimlane;startSize=23;fillColor=#6d8764;fontColor=#ffffff;strokeColor=#3A5431;labelBackgroundColor=none;" parent="17" vertex="1">
                    <mxGeometry x="365" y="40" width="360" height="340" as="geometry"/>
                </mxCell>
                <mxCell id="33" value="Get a copy of buffered data" style="rounded=1;whiteSpace=wrap;html=1;absoluteArcSize=1;arcSize=14;strokeWidth=2;fillColor=#f0a30a;fontColor=#000000;strokeColor=#BD7000;fontStyle=1" parent="31" vertex="1">
                    <mxGeometry x="20" y="40" width="140" height="50" as="geometry"/>
                </mxCell>
                <mxCell id="34" value="Clear buffered data" style="rounded=1;whiteSpace=wrap;html=1;absoluteArcSize=1;arcSize=14;strokeWidth=2;fillColor=#f0a30a;fontColor=#000000;strokeColor=#BD7000;fontStyle=1" parent="31" vertex="1">
                    <mxGeometry x="20" y="160" width="140" height="50" as="geometry"/>
                </mxCell>
                <mxCell id="35" value="Add new data to buffer" style="rounded=1;whiteSpace=wrap;html=1;absoluteArcSize=1;arcSize=14;strokeWidth=2;fillColor=#f0a30a;fontColor=#000000;strokeColor=#BD7000;fontStyle=1" parent="31" vertex="1">
                    <mxGeometry x="20" y="100" width="140" height="50" as="geometry"/>
                </mxCell>
                <mxCell id="36" value="Get the amount of currently buffered data" style="rounded=1;whiteSpace=wrap;html=1;absoluteArcSize=1;arcSize=14;strokeWidth=2;fillColor=#f0a30a;fontColor=#000000;strokeColor=#BD7000;fontStyle=1" parent="31" vertex="1">
                    <mxGeometry x="20" y="220" width="140" height="50" as="geometry"/>
                </mxCell>
                <mxCell id="32" value="Buffer incoming data" style="rounded=1;whiteSpace=wrap;html=1;absoluteArcSize=1;arcSize=14;strokeWidth=2;fillColor=#008a00;fontColor=#ffffff;strokeColor=#005700;" parent="31" vertex="1">
                    <mxGeometry x="190" y="40" width="140" height="50" as="geometry"/>
                </mxCell>
                <mxCell id="51" value="Notify about new data" style="rounded=1;whiteSpace=wrap;html=1;absoluteArcSize=1;arcSize=14;strokeWidth=2;fillColor=#6a00ff;fontColor=#ffffff;strokeColor=#3700CC;fontStyle=1" parent="31" vertex="1">
                    <mxGeometry x="190" y="110" width="140" height="50" as="geometry"/>
                </mxCell>
                <mxCell id="211" value="Allow setting notification threshold/event based on data or time" style="rounded=1;whiteSpace=wrap;html=1;absoluteArcSize=1;arcSize=14;strokeWidth=2;fillColor=#a20025;strokeColor=#6F0000;fontColor=#ffffff;" parent="31" vertex="1">
                    <mxGeometry x="190" y="180" width="160" height="50" as="geometry"/>
                </mxCell>
                <mxCell id="219" value="Get/Set new data notification threshold/event" style="rounded=1;whiteSpace=wrap;html=1;absoluteArcSize=1;arcSize=14;strokeWidth=2;fillColor=#f0a30a;fontColor=#000000;strokeColor=#BD7000;fontStyle=1" parent="31" vertex="1">
                    <mxGeometry x="20" y="280" width="140" height="50" as="geometry"/>
                </mxCell>
                <mxCell id="144" value="When the data from serial arrives, add it to the ByteBuffer" style="rounded=1;whiteSpace=wrap;html=1;absoluteArcSize=1;arcSize=14;strokeWidth=2;fillColor=#647687;fontColor=#ffffff;strokeColor=#314354;" parent="17" vertex="1">
                    <mxGeometry x="190" y="180" width="160" height="60" as="geometry"/>
                </mxCell>
                <mxCell id="145" value="Get a copy of buffered data" style="rounded=1;whiteSpace=wrap;html=1;absoluteArcSize=1;arcSize=14;strokeWidth=2;fillColor=#f0a30a;fontColor=#000000;strokeColor=#BD7000;" parent="17" vertex="1">
                    <mxGeometry x="20" y="280" width="140" height="50" as="geometry"/>
                </mxCell>
                <mxCell id="146" value="Clear buffered data" style="rounded=1;whiteSpace=wrap;html=1;absoluteArcSize=1;arcSize=14;strokeWidth=2;fillColor=#f0a30a;fontColor=#000000;strokeColor=#BD7000;" parent="17" vertex="1">
                    <mxGeometry x="20" y="160" width="140" height="50" as="geometry"/>
                </mxCell>
                <mxCell id="148" value="Get the amount of currently buffered data" style="rounded=1;whiteSpace=wrap;html=1;absoluteArcSize=1;arcSize=14;strokeWidth=2;fillColor=#f0a30a;fontColor=#000000;strokeColor=#BD7000;" parent="17" vertex="1">
                    <mxGeometry x="20" y="220" width="140" height="50" as="geometry"/>
                </mxCell>
                <mxCell id="208" value="SerialPortIOImplementation (external)" style="swimlane;shadow=0;glass=0;sketch=0;fontStyle=0;fillColor=#3B3B3B;strokeColor=#7D7D7D;fontColor=#DEDEDE;labelBackgroundColor=none;" parent="17" vertex="1">
                    <mxGeometry x="20" y="340" width="250" height="33" as="geometry"/>
                </mxCell>
                <mxCell id="212" value="Get/Set new data notification threshold/event" style="rounded=1;whiteSpace=wrap;html=1;absoluteArcSize=1;arcSize=14;strokeWidth=2;fillColor=#f0a30a;fontColor=#000000;strokeColor=#BD7000;" parent="17" vertex="1">
                    <mxGeometry x="180" y="280" width="140" height="50" as="geometry"/>
                </mxCell>
                <mxCell id="241" value="Open/close serial port with specific configuration" style="rounded=1;whiteSpace=wrap;html=1;absoluteArcSize=1;arcSize=14;strokeWidth=2;fillColor=#f0a30a;fontColor=#000000;strokeColor=#BD7000;fontStyle=1" parent="17" vertex="1">
                    <mxGeometry x="20" y="100" width="140" height="50" as="geometry"/>
                </mxCell>
                <mxCell id="134" value="" style="endArrow=classic;html=1;entryX=0.5;entryY=0;entryDx=0;entryDy=0;strokeColor=#858585;" parent="56" target="37" edge="1">
                    <mxGeometry relative="1" as="geometry">
                        <mxPoint x="955" y="430" as="sourcePoint"/>
                        <mxPoint x="540" y="330" as="targetPoint"/>
                    </mxGeometry>
                </mxCell>
                <mxCell id="135" value="Notifies" style="edgeLabel;resizable=0;html=1;align=center;verticalAlign=middle;labelBackgroundColor=#3B3B3B;fontColor=#DEDEDE;" parent="134" connectable="0" vertex="1">
                    <mxGeometry relative="1" as="geometry"/>
                </mxCell>
                <mxCell id="140" value="Notify about closing or opening the port" style="rounded=1;whiteSpace=wrap;html=1;absoluteArcSize=1;arcSize=14;strokeWidth=2;fillColor=#6a00ff;fontColor=#ffffff;strokeColor=#3700CC;fontStyle=1" parent="56" vertex="1">
                    <mxGeometry x="200" y="170" width="140" height="50" as="geometry"/>
                </mxCell>
                <mxCell id="143" value="Make sure that the serial port has unique ID, bound to hardware!" style="rounded=1;whiteSpace=wrap;html=1;absoluteArcSize=1;arcSize=14;strokeWidth=2;fillColor=#008a00;fontColor=#ffffff;strokeColor=#005700;" parent="56" vertex="1">
                    <mxGeometry x="200" y="240" width="140" height="50" as="geometry"/>
                </mxCell>
                <mxCell id="149" value="After DataConverter is set, connect SerialPortIO notification to it" style="rounded=1;whiteSpace=wrap;html=1;absoluteArcSize=1;arcSize=14;strokeWidth=2;fillColor=#76608a;fontColor=#ffffff;strokeColor=#432D57;" parent="56" vertex="1">
                    <mxGeometry x="200" y="390" width="170" height="66.5" as="geometry"/>
                </mxCell>
                <mxCell id="150" value="Before DataConverter is set, disconnect SerialPortIO notifications from it" style="rounded=1;whiteSpace=wrap;html=1;absoluteArcSize=1;arcSize=14;strokeWidth=2;fillColor=#76608a;fontColor=#ffffff;strokeColor=#432D57;" parent="56" vertex="1">
                    <mxGeometry x="200" y="310" width="170" height="66.5" as="geometry"/>
                </mxCell>
                <mxCell id="152" value="Get a copy of buffered bytes/values" style="rounded=1;whiteSpace=wrap;html=1;absoluteArcSize=1;arcSize=14;strokeWidth=2;fillColor=#f0a30a;fontColor=#000000;strokeColor=#BD7000;" parent="56" vertex="1">
                    <mxGeometry x="30" y="230" width="140" height="50" as="geometry"/>
                </mxCell>
                <mxCell id="189" value="Get the amount of currently buffered bytes/values" style="rounded=1;whiteSpace=wrap;html=1;absoluteArcSize=1;arcSize=14;strokeWidth=2;fillColor=#f0a30a;fontColor=#000000;strokeColor=#BD7000;" parent="56" vertex="1">
                    <mxGeometry x="30" y="290" width="140" height="50" as="geometry"/>
                </mxCell>
                <mxCell id="191" value="Get information about currently used data converter" style="rounded=1;whiteSpace=wrap;html=1;absoluteArcSize=1;arcSize=14;strokeWidth=2;fillColor=#f0a30a;fontColor=#000000;strokeColor=#BD7000;" parent="56" vertex="1">
                    <mxGeometry x="29" y="350" width="141" height="50" as="geometry"/>
                </mxCell>
                <mxCell id="195" value="Notify about new byte from serial port" style="rounded=1;whiteSpace=wrap;html=1;absoluteArcSize=1;arcSize=14;strokeWidth=2;fillColor=#6a00ff;fontColor=#ffffff;strokeColor=#3700CC;" parent="56" vertex="1">
                    <mxGeometry x="200" y="110" width="140" height="50" as="geometry"/>
                </mxCell>
                <mxCell id="214" value="Get/Set notification threshold" style="rounded=1;whiteSpace=wrap;html=1;absoluteArcSize=1;arcSize=14;strokeWidth=2;fillColor=#f0a30a;fontColor=#000000;strokeColor=#BD7000;" parent="56" vertex="1">
                    <mxGeometry x="30" y="410" width="140" height="50" as="geometry"/>
                </mxCell>
                <mxCell id="240" value="Open/close serial port with specific configuration" style="rounded=1;whiteSpace=wrap;html=1;absoluteArcSize=1;arcSize=14;strokeWidth=2;fillColor=#f0a30a;fontColor=#000000;strokeColor=#BD7000;fontStyle=0" parent="56" vertex="1">
                    <mxGeometry x="29" y="50" width="140" height="50" as="geometry"/>
                </mxCell>
                <mxCell id="79" value="Containers marked with the same, non-default, colour are instances of the same class.&lt;br&gt;&lt;b&gt;Bold&lt;/b&gt; functions and notifications are the original ones in hierarchy. Non-bold functions and notifications indicate that specific function or notification is accessible from an object's scope, but they call, or are caused by,&amp;nbsp;&lt;b&gt;bold&lt;/b&gt; ones.&lt;br&gt;Normal, non-bold names of classes/modules indicate that they are external dependencies. &lt;i&gt;Italic&lt;/i&gt;&amp;nbsp;names of classes mean that they have abstract implementation (to-be-done outside of the module)" style="text;html=1;strokeColor=none;fillColor=#3D3D3D;align=center;verticalAlign=middle;whiteSpace=wrap;rounded=0;fontColor=#DEDEDE;" parent="1" vertex="1">
                    <mxGeometry x="990" y="12.5" width="730" height="85" as="geometry"/>
                </mxCell>
                <mxCell id="85" value="Internal reactions to internal events" style="rounded=1;whiteSpace=wrap;html=1;absoluteArcSize=1;arcSize=14;strokeWidth=2;fillColor=#647687;fontColor=#ffffff;strokeColor=#314354;" parent="1" vertex="1">
                    <mxGeometry x="500" y="30" width="140" height="50" as="geometry"/>
                </mxCell>
                <mxCell id="136" value="" style="endArrow=classic;html=1;strokeColor=#858585;" parent="1" edge="1">
                    <mxGeometry relative="1" as="geometry">
                        <mxPoint x="490" y="270" as="sourcePoint"/>
                        <mxPoint x="370" y="270" as="targetPoint"/>
                    </mxGeometry>
                </mxCell>
                <mxCell id="137" value="Notifies" style="edgeLabel;resizable=0;html=1;align=center;verticalAlign=middle;labelBackgroundColor=#3B3B3B;fontColor=#DEDEDE;" parent="136" connectable="0" vertex="1">
                    <mxGeometry relative="1" as="geometry"/>
                </mxCell>
                <mxCell id="192" value="Internal reactions to external events" style="rounded=1;whiteSpace=wrap;html=1;absoluteArcSize=1;arcSize=14;strokeWidth=2;fillColor=#76608a;fontColor=#ffffff;strokeColor=#432D57;" parent="1" vertex="1">
                    <mxGeometry x="660" y="30" width="140" height="50" as="geometry"/>
                </mxCell>
                <mxCell id="201" value="" style="endArrow=classic;html=1;strokeColor=#858585;" parent="1" edge="1">
                    <mxGeometry relative="1" as="geometry">
                        <mxPoint x="370" y="190" as="sourcePoint"/>
                        <mxPoint x="490" y="190" as="targetPoint"/>
                    </mxGeometry>
                </mxCell>
                <mxCell id="202" value="Deletes" style="edgeLabel;resizable=0;html=1;align=center;verticalAlign=middle;labelBackgroundColor=#3B3B3B;fontColor=#DEDEDE;" parent="201" connectable="0" vertex="1">
                    <mxGeometry relative="1" as="geometry"/>
                </mxCell>
                <mxCell id="203" value="" style="endArrow=classic;html=1;strokeColor=#858585;" parent="1" edge="1">
                    <mxGeometry relative="1" as="geometry">
                        <mxPoint x="370" y="230" as="sourcePoint"/>
                        <mxPoint x="490" y="230" as="targetPoint"/>
                    </mxGeometry>
                </mxCell>
                <mxCell id="204" value="Gives access to" style="edgeLabel;resizable=0;html=1;align=center;verticalAlign=middle;labelBackgroundColor=#3B3B3B;fontColor=#DEDEDE;" parent="203" connectable="0" vertex="1">
                    <mxGeometry relative="1" as="geometry"/>
                </mxCell>
                <mxCell id="205" value="" style="endArrow=classic;html=1;strokeColor=#858585;" parent="1" edge="1">
                    <mxGeometry relative="1" as="geometry">
                        <mxPoint x="370" y="210" as="sourcePoint"/>
                        <mxPoint x="490" y="210" as="targetPoint"/>
                    </mxGeometry>
                </mxCell>
                <mxCell id="206" value="Modifies" style="edgeLabel;resizable=0;html=1;align=center;verticalAlign=middle;labelBackgroundColor=#3B3B3B;fontColor=#DEDEDE;" parent="205" connectable="0" vertex="1">
                    <mxGeometry relative="1" as="geometry"/>
                </mxCell>
                <mxCell id="210" value="Implementation notes and ideas" style="rounded=1;whiteSpace=wrap;html=1;absoluteArcSize=1;arcSize=14;strokeWidth=2;fillColor=#a20025;strokeColor=#6F0000;fontColor=#ffffff;" parent="1" vertex="1">
                    <mxGeometry x="820" y="30" width="140" height="50" as="geometry"/>
                </mxCell>
                <mxCell id="254" value="&lt;span style=&quot;color: rgba(0 , 0 , 0 , 0) ; font-family: monospace ; font-size: 0px&quot;&gt;%3CmxGraphModel%3E%3Croot%3E%3CmxCell%20id%3D%220%22%2F%3E%3CmxCell%20id%3D%221%22%20parent%3D%220%22%2F%3E%3CmxCell%20id%3D%222%22%20value%3D%22SerialPortsManager%22%20style%3D%22swimlane%3BfillColor%3D%233B3B3B%3BfontColor%3D%23DEDEDE%3BlabelBackgroundColor%3Dnone%3BstrokeColor%3D%237D7D7D%3B%22%20vertex%3D%221%22%20parent%3D%221%22%3E%3CmxGeometry%20x%3D%2220%22%20y%3D%22130%22%20width%3D%22350%22%20height%3D%22470%22%20as%3D%22geometry%22%2F%3E%3C%2FmxCell%3E%3CmxCell%20id%3D%223%22%20value%3D%22Get%20the%20list%20of%20ports%20connected%20to%20the%20machine%22%20style%3D%22rounded%3D1%3BwhiteSpace%3Dwrap%3Bhtml%3D1%3BabsoluteArcSize%3D1%3BarcSize%3D14%3BstrokeWidth%3D2%3BfillColor%3D%23f0a30a%3BfontColor%3D%23000000%3BstrokeColor%3D%23BD7000%3BfontStyle%3D1%22%20vertex%3D%221%22%20parent%3D%222%22%3E%3CmxGeometry%20x%3D%2220%22%20y%3D%2240%22%20width%3D%22140%22%20height%3D%2250%22%20as%3D%22geometry%22%2F%3E%3C%2FmxCell%3E%3CmxCell%20id%3D%224%22%20value%3D%22Get%20the%20list%20of%20currently%20used%20ports%22%20style%3D%22rounded%3D1%3BwhiteSpace%3Dwrap%3Bhtml%3D1%3BabsoluteArcSize%3D1%3BarcSize%3D14%3BstrokeWidth%3D2%3BfillColor%3D%23f0a30a%3BfontColor%3D%23000000%3BstrokeColor%3D%23BD7000%3BfontStyle%3D1%22%20vertex%3D%221%22%20parent%3D%222%22%3E%3CmxGeometry%20x%3D%2220%22%20y%3D%22100%22%20width%3D%22140%22%20height%3D%2250%22%20as%3D%22geometry%22%2F%3E%3C%2FmxCell%3E%3CmxCell%20id%3D%225%22%20value%3D%22Get%20serial%20port%20by%20ID%22%20style%3D%22rounded%3D1%3BwhiteSpace%3Dwrap%3Bhtml%3D1%3BabsoluteArcSize%3D1%3BarcSize%3D14%3BstrokeWidth%3D2%3BfillColor%3D%23f0a30a%3BfontColor%3D%23000000%3BstrokeColor%3D%23BD7000%3BfontStyle%3D1%22%20vertex%3D%221%22%20parent%3D%222%22%3E%3CmxGeometry%20x%3D%2220%22%20y%3D%22160%22%20width%3D%22140%22%20height%3D%2250%22%20as%3D%22geometry%22%2F%3E%3C%2FmxCell%3E%3CmxCell%20id%3D%226%22%20value%3D%22Close%20a%20serial%20port%20by%20ID%22%20style%3D%22rounded%3D1%3BwhiteSpace%3Dwrap%3Bhtml%3D1%3BabsoluteArcSize%3D1%3BarcSize%3D14%3BstrokeWidth%3D2%3BfillColor%3D%23f0a30a%3BfontColor%3D%23000000%3BstrokeColor%3D%23BD7000%3BfontStyle%3D1%22%20vertex%3D%221%22%20parent%3D%222%22%3E%3CmxGeometry%20x%3D%2220%22%20y%3D%22340%22%20width%3D%22140%22%20height%3D%2250%22%20as%3D%22geometry%22%2F%3E%3C%2FmxCell%3E%3CmxCell%20id%3D%227%22%20value%3D%22Re-open%20a%20serial%20port%20by%20ID%2C%20with%20specific%20configuration%22%20style%3D%22rounded%3D1%3BwhiteSpace%3Dwrap%3Bhtml%3D1%3BabsoluteArcSize%3D1%3BarcSize%3D14%3BstrokeWidth%3D2%3BfillColor%3D%23f0a30a%3BfontColor%3D%23000000%3BstrokeColor%3D%23BD7000%3BfontStyle%3D1%22%20vertex%3D%221%22%20parent%3D%222%22%3E%3CmxGeometry%20x%3D%2220%22%20y%3D%22280%22%20width%3D%22140%22%20height%3D%2250%22%20as%3D%22geometry%22%2F%3E%3C%2FmxCell%3E%3CmxCell%20id%3D%228%22%20value%3D%22Open%20a%20serial%20port%20by%20ID%20with%20specific%20configuration%22%20style%3D%22rounded%3D1%3BwhiteSpace%3Dwrap%3Bhtml%3D1%3BabsoluteArcSize%3D1%3BarcSize%3D14%3BstrokeWidth%3D2%3BfillColor%3D%23f0a30a%3BfontColor%3D%23000000%3BstrokeColor%3D%23BD7000%3BfontStyle%3D1%22%20vertex%3D%221%22%20parent%3D%222%22%3E%3CmxGeometry%20x%3D%2220%22%20y%3D%22220%22%20width%3D%22140%22%20height%3D%2250%22%20as%3D%22geometry%22%2F%3E%3C%2FmxCell%3E%3CmxCell%20id%3D%229%22%20value%3D%22Keep%20track%20of%20ports%20used%20by%20the%20application%22%20style%3D%22rounded%3D1%3BwhiteSpace%3Dwrap%3Bhtml%3D1%3BabsoluteArcSize%3D1%3BarcSize%3D14%3BstrokeWidth%3D2%3BfillColor%3D%23008a00%3BfontColor%3D%23ffffff%3BstrokeColor%3D%23005700%3B%22%20vertex%3D%221%22%20parent%3D%222%22%3E%3CmxGeometry%20x%3D%22190%22%20y%3D%2240%22%20width%3D%22140%22%20height%3D%2250%22%20as%3D%22geometry%22%2F%3E%3C%2FmxCell%3E%3CmxCell%20id%3D%2210%22%20value%3D%22Get%20information%20about%20serial%20port%20and%20it's%20configuration%22%20style%3D%22rounded%3D1%3BwhiteSpace%3Dwrap%3Bhtml%3D1%3BabsoluteArcSize%3D1%3BarcSize%3D14%3BstrokeWidth%3D2%3BfillColor%3D%23f0a30a%3BfontColor%3D%23000000%3BstrokeColor%3D%23BD7000%3BfontStyle%3D1%22%20vertex%3D%221%22%20parent%3D%222%22%3E%3CmxGeometry%20x%3D%2220%22%20y%3D%22400%22%20width%3D%22141%22%20height%3D%2250%22%20as%3D%22geometry%22%2F%3E%3C%2FmxCell%3E%3CmxCell%20id%3D%2211%22%20value%3D%22Update%20internal%20state%20on%20SerialPort%20notification%22%20style%3D%22rounded%3D1%3BwhiteSpace%3Dwrap%3Bhtml%3D1%3BabsoluteArcSize%3D1%3BarcSize%3D14%3BstrokeWidth%3D2%3BfillColor%3D%2376608a%3BfontColor%3D%23ffffff%3BstrokeColor%3D%23432D57%3B%22%20vertex%3D%221%22%20parent%3D%222%22%3E%3CmxGeometry%20x%3D%22190.00000000000023%22%20y%3D%22110%22%20width%3D%22140%22%20height%3D%2250%22%20as%3D%22geometry%22%2F%3E%3C%2FmxCell%3E%3CmxCell%20id%3D%2212%22%20value%3D%22Functions%20provided%20by%20the%20class%2C%20callable%20from%20outside%22%20style%3D%22rounded%3D1%3BwhiteSpace%3Dwrap%3Bhtml%3D1%3BabsoluteArcSize%3D1%3BarcSize%3D14%3BstrokeWidth%3D2%3BfillColor%3D%23f0a30a%3BfontColor%3D%23000000%3BstrokeColor%3D%23BD7000%3B%22%20vertex%3D%221%22%20parent%3D%221%22%3E%3CmxGeometry%20x%3D%2220%22%20y%3D%2230%22%20width%3D%22140%22%20height%3D%2250%22%20as%3D%22geometry%22%2F%3E%3C%2FmxCell%3E%3CmxCell%20id%3D%2213%22%20value%3D%22Notifications%20about%20the%20internal%20state%20change%22%20style%3D%22rounded%3D1%3BwhiteSpace%3Dwrap%3Bhtml%3D1%3BabsoluteArcSize%3D1%3BarcSize%3D14%3BstrokeWidth%3D2%3BfillColor%3D%236a00ff%3BfontColor%3D%23ffffff%3BstrokeColor%3D%233700CC%3B%22%20vertex%3D%221%22%20parent%3D%221%22%3E%3CmxGeometry%20x%3D%22180%22%20y%3D%2230%22%20width%3D%22140%22%20height%3D%2250%22%20as%3D%22geometry%22%2F%3E%3C%2FmxCell%3E%3CmxCell%20id%3D%2214%22%20value%3D%22Responsibilities%20and%20constraints%20that%20the%20class%20manages%22%20style%3D%22rounded%3D1%3BwhiteSpace%3Dwrap%3Bhtml%3D1%3BabsoluteArcSize%3D1%3BarcSize%3D14%3BstrokeWidth%3D2%3BfillColor%3D%23008a00%3BfontColor%3D%23ffffff%3BstrokeColor%3D%23005700%3B%22%20vertex%3D%221%22%20parent%3D%221%22%3E%3CmxGeometry%20x%3D%22340%22%20y%3D%2230%22%20width%3D%22140%22%20height%3D%2250%22%20as%3D%22geometry%22%2F%3E%3C%2FmxCell%3E%3CmxCell%20id%3D%2215%22%20value%3D%22%22%20style%3D%22endArrow%3Dclassic%3Bhtml%3D1%3BstrokeColor%3D%23858585%3B%22%20edge%3D%221%22%20parent%3D%221%22%3E%3CmxGeometry%20relative%3D%221%22%20as%3D%22geometry%22%3E%3CmxPoint%20x%3D%22370%22%20y%3D%22170%22%20as%3D%22sourcePoint%22%2F%3E%3CmxPoint%20x%3D%22490.0000000000002%22%20y%3D%22170%22%20as%3D%22targetPoint%22%2F%3E%3C%2FmxGeometry%3E%3C%2FmxCell%3E%3CmxCell%20id%3D%2216%22%20value%3D%22Creates%22%20style%3D%22edgeLabel%3Bresizable%3D0%3Bhtml%3D1%3Balign%3Dcenter%3BverticalAlign%3Dmiddle%3BlabelBackgroundColor%3D%233B3B3B%3BfontColor%3D%23DEDEDE%3B%22%20connectable%3D%220%22%20vertex%3D%221%22%20parent%3D%2215%22%3E%3CmxGeometry%20relative%3D%221%22%20as%3D%22geometry%22%2F%3E%3C%2FmxCell%3E%3CmxCell%20id%3D%2217%22%20value%3D%22SerialPort%22%20style%3D%22swimlane%3Bglass%3D0%3BfillColor%3D%233B3B3B%3BstrokeColor%3D%237D7D7D%3BfontColor%3D%23DEDEDE%3BlabelBackgroundColor%3Dnone%3B%22%20vertex%3D%221%22%20parent%3D%221%22%3E%3CmxGeometry%20x%3D%22490%22%20y%3D%22130%22%20width%3D%221530%22%20height%3D%22880%22%20as%3D%22geometry%22%2F%3E%3C%2FmxCell%3E%3CmxCell%20id%3D%2218%22%20value%3D%22Transmit%20the%20data%20over%20serial%20port%22%20style%3D%22rounded%3D1%3BwhiteSpace%3Dwrap%3Bhtml%3D1%3BabsoluteArcSize%3D1%3BarcSize%3D14%3BstrokeWidth%3D2%3BfillColor%3D%23f0a30a%3BfontColor%3D%23000000%3BstrokeColor%3D%23BD7000%3B%22%20vertex%3D%221%22%20parent%3D%2217%22%3E%3CmxGeometry%20x%3D%2230%22%20y%3D%22110%22%20width%3D%22140%22%20height%3D%2250%22%20as%3D%22geometry%22%2F%3E%3C%2FmxCell%3E%3CmxCell%20id%3D%2219%22%20value%3D%22Get%2FSet%20the%20data%20converter%22%20style%3D%22rounded%3D1%3BwhiteSpace%3Dwrap%3Bhtml%3D1%3BabsoluteArcSize%3D1%3BarcSize%3D14%3BstrokeWidth%3D2%3BfillColor%3D%23f0a30a%3BfontColor%3D%23000000%3BstrokeColor%3D%23BD7000%3B%22%20vertex%3D%221%22%20parent%3D%2217%22%3E%3CmxGeometry%20x%3D%2230%22%20y%3D%22470%22%20width%3D%22140%22%20height%3D%2250%22%20as%3D%22geometry%22%2F%3E%3C%2FmxCell%3E%3CmxCell%20id%3D%2220%22%20value%3D%22Clear%20data%20buffers%22%20style%3D%22rounded%3D1%3BwhiteSpace%3Dwrap%3Bhtml%3D1%3BabsoluteArcSize%3D1%3BarcSize%3D14%3BstrokeWidth%3D2%3BfillColor%3D%23f0a30a%3BfontColor%3D%23000000%3BstrokeColor%3D%23BD7000%3B%22%20vertex%3D%221%22%20parent%3D%2217%22%3E%3CmxGeometry%20x%3D%2230%22%20y%3D%22170%22%20width%3D%22140%22%20height%3D%2250%22%20as%3D%22geometry%22%2F%3E%3C%2FmxCell%3E%3CmxCell%20id%3D%2221%22%20value%3D%22SerialValueBuffer%22%20style%3D%22swimlane%3BfontStyle%3D1%3BfillColor%3D%233B3B3B%3BstrokeColor%3D%237D7D7D%3BfontColor%3D%23DEDEDE%3BlabelBackgroundColor%3Dnone%3B%22%20vertex%3D%221%22%20parent%3D%2217%22%3E%3CmxGeometry%20x%3D%22400%22%20y%3D%22470%22%20width%3D%221110%22%20height%3D%22390%22%20as%3D%22geometry%22%2F%3E%3C%2FmxCell%3E%3CmxCell%20id%3D%2222%22%20value%3D%22Attach%20to%20the%20serial%20port%22%20style%3D%22rounded%3D1%3BwhiteSpace%3Dwrap%3Bhtml%3D1%3BabsoluteArcSize%3D1%3BarcSize%3D14%3BstrokeWidth%3D2%3BfillColor%3D%23f0a30a%3BfontColor%3D%23000000%3BstrokeColor%3D%23BD7000%3BfontStyle%3D1%22%20vertex%3D%221%22%20parent%3D%2221%22%3E%3CmxGeometry%20x%3D%2220%22%20y%3D%2240%22%20width%3D%22140%22%20height%3D%2250%22%20as%3D%22geometry%22%2F%3E%3C%2FmxCell%3E%3CmxCell%20id%3D%2223%22%20value%3D%22Notify%20about%20new%20value%22%20style%3D%22rounded%3D1%3BwhiteSpace%3Dwrap%3Bhtml%3D1%3BabsoluteArcSize%3D1%3BarcSize%3D14%3BstrokeWidth%3D2%3BfillColor%3D%236a00ff%3BfontColor%3D%23ffffff%3BstrokeColor%3D%233700CC%3BfontStyle%3D0%22%20vertex%3D%221%22%20parent%3D%2221%22%3E%3CmxGeometry%20x%3D%22190%22%20y%3D%2240%22%20width%3D%22140%22%20height%3D%2250%22%20as%3D%22geometry%22%2F%3E%3C%2FmxCell%3E%3CmxCell%20id%3D%2224%22%20value%3D%22Get%20a%20copy%20of%20buffered%20values%22%20style%3D%22rounded%3D1%3BwhiteSpace%3Dwrap%3Bhtml%3D1%3BabsoluteArcSize%3D1%3BarcSize%3D14%3BstrokeWidth%3D2%3BfillColor%3D%23f0a30a%3BfontColor%3D%23000000%3BstrokeColor%3D%23BD7000%3B%22%20vertex%3D%221%22%20parent%3D%2221%22%3E%3CmxGeometry%20x%3D%2219%22%20y%3D%22220%22%20width%3D%22140%22%20height%3D%2250%22%20as%3D%22geometry%22%2F%3E%3C%2FmxCell%3E%3CmxCell%20id%3D%2225%22%20value%3D%22Clear%20buffered%20values%22%20style%3D%22rounded%3D1%3BwhiteSpace%3Dwrap%3Bhtml%3D1%3BabsoluteArcSize%3D1%3BarcSize%3D14%3BstrokeWidth%3D2%3BfillColor%3D%23f0a30a%3BfontColor%3D%23000000%3BstrokeColor%3D%23BD7000%3B%22%20vertex%3D%221%22%20parent%3D%2221%22%3E%3CmxGeometry%20x%3D%22170%22%20y%3D%22220%22%20width%3D%22140%22%20height%3D%2250%22%20as%3D%22geometry%22%2F%3E%3C%2FmxCell%3E%3CmxCell%20id%3D%2226%22%20value%3D%22Get%20the%20amount%20of%20currently%20buffered%20values%22%20style%3D%22rounded%3D1%3BwhiteSpace%3Dwrap%3Bhtml%3D1%3BabsoluteArcSize%3D1%3BarcSize%3D14%3BstrokeWidth%3D2%3BfillColor%3D%23f0a30a%3BfontColor%3D%23000000%3BstrokeColor%3D%23BD7000%3B%22%20vertex%3D%221%22%20parent%3D%2221%22%3E%3CmxGeometry%20x%3D%2219%22%20y%3D%22280%22%20width%3D%22140%22%20height%3D%2250%22%20as%3D%22geometry%22%2F%3E%3C%2FmxCell%3E%3CmxCell%20id%3D%2227%22%20value%3D%22Clear%20the%20value%20buffer%20and%20convert%20the%20content%20of%20byte%20buffer%20into%20it%22%20style%3D%22rounded%3D1%3BwhiteSpace%3Dwrap%3Bhtml%3D1%3BabsoluteArcSize%3D1%3BarcSize%3D14%3BstrokeWidth%3D2%3BfillColor%3D%23f0a30a%3BfontColor%3D%23000000%3BstrokeColor%3D%23BD7000%3BfontStyle%3D1%22%20vertex%3D%221%22%20parent%3D%2221%22%3E%3CmxGeometry%20x%3D%22170%22%20y%3D%22280%22%20width%3D%22160%22%20height%3D%2260%22%20as%3D%22geometry%22%2F%3E%3C%2FmxCell%3E%3CmxCell%20id%3D%2228%22%20value%3D%22Get%20information%20about%20data%20converter%22%20style%3D%22rounded%3D1%3BwhiteSpace%3Dwrap%3Bhtml%3D1%3BabsoluteArcSize%3D1%3BarcSize%3D14%3BstrokeWidth%3D2%3BfillColor%3D%23f0a30a%3BfontColor%3D%23000000%3BstrokeColor%3D%23BD7000%3B%22%20vertex%3D%221%22%20parent%3D%2221%22%3E%3CmxGeometry%20x%3D%2219.5%22%20y%3D%22160%22%20width%3D%22141%22%20height%3D%2250%22%20as%3D%22geometry%22%2F%3E%3C%2FmxCell%3E%3CmxCell%20id%3D%2229%22%20value%3D%22DataConverter%20(abstract)%22%20style%3D%22swimlane%3Bshadow%3D0%3Bglass%3D0%3Bsketch%3D0%3BfontStyle%3D2%3BfillColor%3D%233B3B3B%3BstrokeColor%3D%237D7D7D%3BfontColor%3D%23DEDEDE%3BlabelBackgroundColor%3Dnone%3B%22%20vertex%3D%221%22%20parent%3D%2221%22%3E%3CmxGeometry%20x%3D%22740%22%20y%3D%2240%22%20width%3D%22360%22%20height%3D%22220%22%20as%3D%22geometry%22%2F%3E%3C%2FmxCell%3E%3CmxCell%20id%3D%2230%22%20value%3D%22Configure%20the%20details%20of%20message%20format%22%20style%3D%22rounded%3D1%3BwhiteSpace%3Dwrap%3Bhtml%3D1%3BabsoluteArcSize%3D1%3BarcSize%3D14%3BstrokeWidth%3D2%3BfillColor%3D%23f0a30a%3BfontColor%3D%23000000%3BstrokeColor%3D%23BD7000%3BfontStyle%3D3%22%20vertex%3D%221%22%20parent%3D%2229%22%3E%3CmxGeometry%20x%3D%2220%22%20y%3D%2247%22%20width%3D%22140%22%20height%3D%2250%22%20as%3D%22geometry%22%2F%3E%3C%2FmxCell%3E%3CmxCell%20id%3D%2231%22%20value%3D%22When%20end-of-message%20condition%20is%20detected%2C%20convert%20the%20bytes%20to%20value%20and%20add%20it%20to%20the%20value%20buffer%22%20style%3D%22rounded%3D1%3BwhiteSpace%3Dwrap%3Bhtml%3D1%3BabsoluteArcSize%3D1%3BarcSize%3D14%3BstrokeWidth%3D2%3BfillColor%3D%23647687%3BfontColor%3D%23ffffff%3BstrokeColor%3D%23314354%3BfontStyle%3D2%22%20vertex%3D%221%22%20parent%3D%2229%22%3E%3CmxGeometry%20x%3D%22190%22%20y%3D%22120%22%20width%3D%22150%22%20height%3D%2280%22%20as%3D%22geometry%22%2F%3E%3C%2FmxCell%3E%3CmxCell%20id%3D%2232%22%20value%3D%22Track%20the%20data%20in%20attached%20byte%20buffer%2C%20looking%20for%20specific%20end-of-message%20condition%22%20style%3D%22rounded%3D1%3BwhiteSpace%3Dwrap%3Bhtml%3D1%3BabsoluteArcSize%3D1%3BarcSize%3D14%3BstrokeWidth%3D2%3BfillColor%3D%23008a00%3BfontColor%3D%23ffffff%3BstrokeColor%3D%23005700%3Bsketch%3D0%3Bshadow%3D0%3Bglass%3D0%3BfontStyle%3D2%22%20vertex%3D%221%22%20parent%3D%2229%22%3E%3CmxGeometry%20x%3D%22190%22%20y%3D%2242%22%20width%3D%22150%22%20height%3D%2260%22%20as%3D%22geometry%22%2F%3E%3C%2FmxCell%3E%3CmxCell%20id%3D%2233%22%20value%3D%22Get%20information%20about%20data%20converter%22%20style%3D%22rounded%3D1%3BwhiteSpace%3Dwrap%3Bhtml%3D1%3BabsoluteArcSize%3D1%3BarcSize%3D14%3BstrokeWidth%3D2%3BfillColor%3D%23f0a30a%3BfontColor%3D%23000000%3BstrokeColor%3D%23BD7000%3BfontStyle%3D3%22%20vertex%3D%221%22%20parent%3D%2229%22%3E%3CmxGeometry%20x%3D%2220%22%20y%3D%22110%22%20width%3D%22140%22%20height%3D%2250%22%20as%3D%22geometry%22%2F%3E%3C%2FmxCell%3E%3CmxCell%20id%3D%2234%22%20value%3D%22Get%2FSet%20data%20converter%22%20style%3D%22rounded%3D1%3BwhiteSpace%3Dwrap%3Bhtml%3D1%3BabsoluteArcSize%3D1%3BarcSize%3D14%3BstrokeWidth%3D2%3BfillColor%3D%23f0a30a%3BfontColor%3D%23000000%3BstrokeColor%3D%23BD7000%3Bshadow%3D0%3Bglass%3D0%3Bsketch%3D0%3BfontStyle%3D1%22%20vertex%3D%221%22%20parent%3D%2221%22%3E%3CmxGeometry%20x%3D%2219%22%20y%3D%22100%22%20width%3D%22140%22%20height%3D%2250%22%20as%3D%22geometry%22%2F%3E%3C%2FmxCell%3E%3CmxCell%20id%3D%2235%22%20value%3D%22Get%2FSet%20new%20value%20notification%20threshold%2Fevent%22%20style%3D%22rounded%3D1%3BwhiteSpace%3Dwrap%3Bhtml%3D1%3BabsoluteArcSize%3D1%3BarcSize%3D14%3BstrokeWidth%3D2%3BfillColor%3D%23f0a30a%3BfontColor%3D%23000000%3BstrokeColor%3D%23BD7000%3B%22%20vertex%3D%221%22%20parent%3D%2221%22%3E%3CmxGeometry%20x%3D%22170%22%20y%3D%22160%22%20width%3D%22140%22%20height%3D%2250%22%20as%3D%22geometry%22%2F%3E%3C%2FmxCell%3E%3CmxCell%20id%3D%2236%22%20value%3D%22ValueBuffer%20(DataBuffer)%22%20style%3D%22swimlane%3BstartSize%3D23%3BfillColor%3D%236d8764%3BfontColor%3D%23ffffff%3BstrokeColor%3D%233A5431%3B%22%20vertex%3D%221%22%20parent%3D%2221%22%3E%3CmxGeometry%20x%3D%22360%22%20y%3D%2240%22%20width%3D%22360%22%20height%3D%22340%22%20as%3D%22geometry%22%2F%3E%3C%2FmxCell%3E%3CmxCell%20id%3D%2237%22%20value%3D%22Get%20a%20copy%20of%20buffered%20data%22%20style%3D%22rounded%3D1%3BwhiteSpace%3Dwrap%3Bhtml%3D1%3BabsoluteArcSize%3D1%3BarcSize%3D14%3BstrokeWidth%3D2%3BfillColor%3D%23f0a30a%3BfontColor%3D%23000000%3BstrokeColor%3D%23BD7000%3BfontStyle%3D1%22%20vertex%3D%221%22%20parent%3D%2236%22%3E%3CmxGeometry%20x%3D%2220%22%20y%3D%2240%22%20width%3D%22140%22%20height%3D%2250%22%20as%3D%22geometry%22%2F%3E%3C%2FmxCell%3E%3CmxCell%20id%3D%2238%22%20value%3D%22Clear%20buffered%20data%22%20style%3D%22rounded%3D1%3BwhiteSpace%3Dwrap%3Bhtml%3D1%3BabsoluteArcSize%3D1%3BarcSize%3D14%3BstrokeWidth%3D2%3BfillColor%3D%23f0a30a%3BfontColor%3D%23000000%3BstrokeColor%3D%23BD7000%3BfontStyle%3D1%22%20vertex%3D%221%22%20parent%3D%2236%22%3E%3CmxGeometry%20x%3D%2220%22%20y%3D%22160%22%20width%3D%22140%22%20height%3D%2250%22%20as%3D%22geometry%22%2F%3E%3C%2FmxCell%3E%3CmxCell%20id%3D%2239%22%20value%3D%22Add%20new%20data%20to%20buffer%22%20style%3D%22rounded%3D1%3BwhiteSpace%3Dwrap%3Bhtml%3D1%3BabsoluteArcSize%3D1%3BarcSize%3D14%3BstrokeWidth%3D2%3BfillColor%3D%23f0a30a%3BfontColor%3D%23000000%3BstrokeColor%3D%23BD7000%3BfontStyle%3D1%22%20vertex%3D%221%22%20parent%3D%2236%22%3E%3CmxGeometry%20x%3D%2220%22%20y%3D%22100%22%20width%3D%22140%22%20height%3D%2250%22%20as%3D%22geometry%22%2F%3E%3C%2FmxCell%3E%3CmxCell%20id%3D%2240%22%20value%3D%22Get%20the%20amount%20of%20currently%20buffered%20data%22%20style%3D%22rounded%3D1%3BwhiteSpace%3Dwrap%3Bhtml%3D1%3BabsoluteArcSize%3D1%3BarcSize%3D14%3BstrokeWidth%3D2%3BfillColor%3D%23f0a30a%3BfontColor%3D%23000000%3BstrokeColor%3D%23BD7000%3BfontStyle%3D1%22%20vertex%3D%221%22%20parent%3D%2236%22%3E%3CmxGeometry%20x%3D%2220%22%20y%3D%22220%22%20width%3D%22140%22%20height%3D%2250%22%20as%3D%22geometry%22%2F%3E%3C%2FmxCell%3E%3CmxCell%20id%3D%2241%22%20value%3D%22Buffer%20incoming%20data%22%20style%3D%22rounded%3D1%3BwhiteSpace%3Dwrap%3Bhtml%3D1%3BabsoluteArcSize%3D1%3BarcSize%3D14%3BstrokeWidth%3D2%3BfillColor%3D%23008a00%3BfontColor%3D%23ffffff%3BstrokeColor%3D%23005700%3B%22%20vertex%3D%221%22%20parent%3D%2236%22%3E%3CmxGeometry%20x%3D%22190%22%20y%3D%2240%22%20width%3D%22140%22%20height%3D%2250%22%20as%3D%22geometry%22%2F%3E%3C%2FmxCell%3E%3CmxCell%20id%3D%2242%22%20value%3D%22Notify%20about%20new%20data%22%20style%3D%22rounded%3D1%3BwhiteSpace%3Dwrap%3Bhtml%3D1%3BabsoluteArcSize%3D1%3BarcSize%3D14%3BstrokeWidth%3D2%3BfillColor%3D%236a00ff%3BfontColor%3D%23ffffff%3BstrokeColor%3D%233700CC%3BfontStyle%3D1%22%20vertex%3D%221%22%20parent%3D%2236%22%3E%3CmxGeometry%20x%3D%22190%22%20y%3D%22110%22%20width%3D%22140%22%20height%3D%2250%22%20as%3D%22geometry%22%2F%3E%3C%2FmxCell%3E%3CmxCell%20id%3D%2243%22%20value%3D%22Allow%20setting%20notification%20threshold%2Fevent%20based%20on%20data%20or%20time%22%20style%3D%22rounded%3D1%3BwhiteSpace%3Dwrap%3Bhtml%3D1%3BabsoluteArcSize%3D1%3BarcSize%3D14%3BstrokeWidth%3D2%3BfillColor%3D%23a20025%3BstrokeColor%3D%236F0000%3BfontColor%3D%23ffffff%3B%22%20vertex%3D%221%22%20parent%3D%2236%22%3E%3CmxGeometry%20x%3D%22190%22%20y%3D%22180%22%20width%3D%22160%22%20height%3D%2250%22%20as%3D%22geometry%22%2F%3E%3C%2FmxCell%3E%3CmxCell%20id%3D%2244%22%20value%3D%22Get%2FSet%20new%20data%20notification%20threshold%2Fevent%22%20style%3D%22rounded%3D1%3BwhiteSpace%3Dwrap%3Bhtml%3D1%3BabsoluteArcSize%3D1%3BarcSize%3D14%3BstrokeWidth%3D2%3BfillColor%3D%23f0a30a%3BfontColor%3D%23000000%3BstrokeColor%3D%23BD7000%3BfontStyle%3D1%22%20vertex%3D%221%22%20parent%3D%2236%22%3E%3CmxGeometry%20x%3D%2220%22%20y%3D%22280%22%20width%3D%22140%22%20height%3D%2250%22%20as%3D%22geometry%22%2F%3E%3C%2FmxCell%3E%3CmxCell%20id%3D%2245%22%20value%3D%22Notify%20about%20new%20value%20from%20serial%20port%22%20style%3D%22rounded%3D1%3BwhiteSpace%3Dwrap%3Bhtml%3D1%3BabsoluteArcSize%3D1%3BarcSize%3D14%3BstrokeWidth%3D2%3BfillColor%3D%236a00ff%3BfontColor%3D%23ffffff%3BstrokeColor%3D%233700CC%3B%22%20vertex%3D%221%22%20parent%3D%2217%22%3E%3CmxGeometry%20x%3D%22200%22%20y%3D%2250%22%20width%3D%22140%22%20height%3D%2250%22%20as%3D%22geometry%22%2F%3E%3C%2FmxCell%3E%3CmxCell%20id%3D%2246%22%20value%3D%22SerialPortIO%22%20style%3D%22swimlane%3BfillColor%3D%233B3B3B%3BstrokeColor%3D%237D7D7D%3BfontColor%3D%23DEDEDE%3BlabelBackgroundColor%3Dnone%3B%22%20vertex%3D%221%22%20parent%3D%2217%22%3E%3CmxGeometry%20x%3D%22400%22%20y%3D%2240%22%20width%3D%22730%22%20height%3D%22390%22%20as%3D%22geometry%22%2F%3E%3C%2FmxCell%3E%3CmxCell%20id%3D%2247%22%20value%3D%22Transmit%20the%20data%20over%20serial%20port%22%20style%3D%22rounded%3D1%3BwhiteSpace%3Dwrap%3Bhtml%3D1%3BabsoluteArcSize%3D1%3BarcSize%3D14%3BstrokeWidth%3D2%3BfillColor%3D%23f0a30a%3BfontColor%3D%23000000%3BstrokeColor%3D%23BD7000%3BfontStyle%3D1%22%20vertex%3D%221%22%20parent%3D%2246%22%3E%3CmxGeometry%20x%3D%2220%22%20y%3D%2240%22%20width%3D%22140%22%20height%3D%2250%22%20as%3D%22geometry%22%2F%3E%3C%2FmxCell%3E%3CmxCell%20id%3D%2248%22%20value%3D%22Notify%20about%20new%20data%22%20style%3D%22rounded%3D1%3BwhiteSpace%3Dwrap%3Bhtml%3D1%3BabsoluteArcSize%3D1%3BarcSize%3D14%3BstrokeWidth%3D2%3BfillColor%3D%236a00ff%3BfontColor%3D%23ffffff%3BstrokeColor%3D%233700CC%3BfontStyle%3D0%22%20vertex%3D%221%22%20parent%3D%2246%22%3E%3CmxGeometry%20x%3D%22190%22%20y%3D%2240%22%20width%3D%22140%22%20height%3D%2250%22%20as%3D%22geometry%22%2F%3E%3C%2FmxCell%3E%3CmxCell%20id%3D%2249%22%20value%3D%22Make%20sure%20that%20port%20is%20successfully%20closed%20when%20this%20object%20is%20destroyed%22%20style%3D%22rounded%3D1%3BwhiteSpace%3Dwrap%3Bhtml%3D1%3BabsoluteArcSize%3D1%3BarcSize%3D14%3BstrokeWidth%3D2%3BfillColor%3D%23008a00%3BfontColor%3D%23ffffff%3BstrokeColor%3D%23005700%3B%22%20vertex%3D%221%22%20parent%3D%2246%22%3E%3CmxGeometry%20x%3D%22190%22%20y%3D%22110%22%20width%3D%22140%22%20height%3D%2250%22%20as%3D%22geometry%22%2F%3E%3C%2FmxCell%3E%3CmxCell%20id%3D%2250%22%20value%3D%22ByteBuffer%20(DataBuffer)%22%20style%3D%22swimlane%3BstartSize%3D23%3BfillColor%3D%236d8764%3BfontColor%3D%23ffffff%3BstrokeColor%3D%233A5431%3BlabelBackgroundColor%3Dnone%3B%22%20vertex%3D%221%22%20parent%3D%2246%22%3E%3CmxGeometry%20x%3D%22360%22%20y%3D%2240%22%20width%3D%22360%22%20height%3D%22340%22%20as%3D%22geometry%22%2F%3E%3C%2FmxCell%3E%3CmxCell%20id%3D%2251%22%20value%3D%22Get%20a%20copy%20of%20buffered%20data%22%20style%3D%22rounded%3D1%3BwhiteSpace%3Dwrap%3Bhtml%3D1%3BabsoluteArcSize%3D1%3BarcSize%3D14%3BstrokeWidth%3D2%3BfillColor%3D%23f0a30a%3BfontColor%3D%23000000%3BstrokeColor%3D%23BD7000%3BfontStyle%3D1%22%20vertex%3D%221%22%20parent%3D%2250%22%3E%3CmxGeometry%20x%3D%2220%22%20y%3D%2240%22%20width%3D%22140%22%20height%3D%2250%22%20as%3D%22geometry%22%2F%3E%3C%2FmxCell%3E%3CmxCell%20id%3D%2252%22%20value%3D%22Clear%20buffered%20data%22%20style%3D%22rounded%3D1%3BwhiteSpace%3Dwrap%3Bhtml%3D1%3BabsoluteArcSize%3D1%3BarcSize%3D14%3BstrokeWidth%3D2%3BfillColor%3D%23f0a30a%3BfontColor%3D%23000000%3BstrokeColor%3D%23BD7000%3BfontStyle%3D1%22%20vertex%3D%221%22%20parent%3D%2250%22%3E%3CmxGeometry%20x%3D%2220%22%20y%3D%22160%22%20width%3D%22140%22%20height%3D%2250%22%20as%3D%22geometry%22%2F%3E%3C%2FmxCell%3E%3CmxCell%20id%3D%2253%22%20value%3D%22Add%20new%20data%20to%20buffer%22%20style%3D%22rounded%3D1%3BwhiteSpace%3Dwrap%3Bhtml%3D1%3BabsoluteArcSize%3D1%3BarcSize%3D14%3BstrokeWidth%3D2%3BfillColor%3D%23f0a30a%3BfontColor%3D%23000000%3BstrokeColor%3D%23BD7000%3BfontStyle%3D1%22%20vertex%3D%221%22%20parent%3D%2250%22%3E%3CmxGeometry%20x%3D%2220%22%20y%3D%22100%22%20width%3D%22140%22%20height%3D%2250%22%20as%3D%22geometry%22%2F%3E%3C%2FmxCell%3E%3CmxCell%20id%3D%2254%22%20value%3D%22Get%20the%20amount%20of%20currently%20buffered%20data%22%20style%3D%22rounded%3D1%3BwhiteSpace%3Dwrap%3Bhtml%3D1%3BabsoluteArcSize%3D1%3BarcSize%3D14%3BstrokeWidth%3D2%3BfillColor%3D%23f0a30a%3BfontColor%3D%23000000%3BstrokeColor%3D%23BD7000%3BfontStyle%3D1%22%20vertex%3D%221%22%20parent%3D%2250%22%3E%3CmxGeometry%20x%3D%2220%22%20y%3D%22220%22%20width%3D%22140%22%20height%3D%2250%22%20as%3D%22geometry%22%2F%3E%3C%2FmxCell%3E%3CmxCell%20id%3D%2255%22%20value%3D%22Buffer%20incoming%20data%22%20style%3D%22rounded%3D1%3BwhiteSpace%3Dwrap%3Bhtml%3D1%3BabsoluteArcSize%3D1%3BarcSize%3D14%3BstrokeWidth%3D2%3BfillColor%3D%23008a00%3BfontColor%3D%23ffffff%3BstrokeColor%3D%23005700%3B%22%20vertex%3D%221%22%20parent%3D%2250%22%3E%3CmxGeometry%20x%3D%22190%22%20y%3D%2240%22%20width%3D%22140%22%20height%3D%2250%22%20as%3D%22geometry%22%2F%3E%3C%2FmxCell%3E%3CmxCell%20id%3D%2256%22%20value%3D%22Notify%20about%20new%20data%22%20style%3D%22rounded%3D1%3BwhiteSpace%3Dwrap%3Bhtml%3D1%3BabsoluteArcSize%3D1%3BarcSize%3D14%3BstrokeWidth%3D2%3BfillColor%3D%236a00ff%3BfontColor%3D%23ffffff%3BstrokeColor%3D%233700CC%3BfontStyle%3D1%22%20vertex%3D%221%22%20parent%3D%2250%22%3E%3CmxGeometry%20x%3D%22190%22%20y%3D%22110%22%20width%3D%22140%22%20height%3D%2250%22%20as%3D%22geometry%22%2F%3E%3C%2FmxCell%3E%3CmxCell%20id%3D%2257%22%20value%3D%22Allow%20setting%20notification%20threshold%2Fevent%20based%20on%20data%20or%20time%22%20style%3D%22rounded%3D1%3BwhiteSpace%3Dwrap%3Bhtml%3D1%3BabsoluteArcSize%3D1%3BarcSize%3D14%3BstrokeWidth%3D2%3BfillColor%3D%23a20025%3BstrokeColor%3D%236F0000%3BfontColor%3D%23ffffff%3B%22%20vertex%3D%221%22%20parent%3D%2250%22%3E%3CmxGeometry%20x%3D%22190%22%20y%3D%22180%22%20width%3D%22160%22%20height%3D%2250%22%20as%3D%22geometry%22%2F%3E%3C%2FmxCell%3E%3CmxCell%20id%3D%2258%22%20value%3D%22Get%2FSet%20new%20data%20notification%20threshold%2Fevent%22%20style%3D%22rounded%3D1%3BwhiteSpace%3Dwrap%3Bhtml%3D1%3BabsoluteArcSize%3D1%3BarcSize%3D14%3BstrokeWidth%3D2%3BfillColor%3D%23f0a30a%3BfontColor%3D%23000000%3BstrokeColor%3D%23BD7000%3BfontStyle%3D1%22%20vertex%3D%221%22%20parent%3D%2250%22%3E%3CmxGeometry%20x%3D%2220%22%20y%3D%22280%22%20width%3D%22140%22%20height%3D%2250%22%20as%3D%22geometry%22%2F%3E%3C%2FmxCell%3E%3CmxCell%20id%3D%2259%22%20value%3D%22When%20the%20data%20from%20serial%20arrives%2C%20add%20it%20to%20the%20ByteBuffer%22%20style%3D%22rounded%3D1%3BwhiteSpace%3Dwrap%3Bhtml%3D1%3BabsoluteArcSize%3D1%3BarcSize%3D14%3BstrokeWidth%3D2%3BfillColor%3D%23647687%3BfontColor%3D%23ffffff%3BstrokeColor%3D%23314354%3B%22%20vertex%3D%221%22%20parent%3D%2246%22%3E%3CmxGeometry%20x%3D%22190%22%20y%3D%22180%22%20width%3D%22160%22%20height%3D%2260%22%20as%3D%22geometry%22%2F%3E%3C%2FmxCell%3E%3CmxCell%20id%3D%2260%22%20value%3D%22Get%20a%20copy%20of%20buffered%20data%22%20style%3D%22rounded%3D1%3BwhiteSpace%3Dwrap%3Bhtml%3D1%3BabsoluteArcSize%3D1%3BarcSize%3D14%3BstrokeWidth%3D2%3BfillColor%3D%23f0a30a%3BfontColor%3D%23000000%3BstrokeColor%3D%23BD7000%3B%22%20vertex%3D%221%22%20parent%3D%2246%22%3E%3CmxGeometry%20x%3D%2220%22%20y%3D%22280%22%20width%3D%22140%22%20height%3D%2250%22%20as%3D%22geometry%22%2F%3E%3C%2FmxCell%3E%3CmxCell%20id%3D%2261%22%20value%3D%22Clear%20buffered%20data%22%20style%3D%22rounded%3D1%3BwhiteSpace%3Dwrap%3Bhtml%3D1%3BabsoluteArcSize%3D1%3BarcSize%3D14%3BstrokeWidth%3D2%3BfillColor%3D%23f0a30a%3BfontColor%3D%23000000%3BstrokeColor%3D%23BD7000%3B%22%20vertex%3D%221%22%20parent%3D%2246%22%3E%3CmxGeometry%20x%3D%2220%22%20y%3D%22160%22%20width%3D%22140%22%20height%3D%2250%22%20as%3D%22geometry%22%2F%3E%3C%2FmxCell%3E%3CmxCell%20id%3D%2262%22%20value%3D%22Get%20the%20amount%20of%20currently%20buffered%20data%22%20style%3D%22rounded%3D1%3BwhiteSpace%3Dwrap%3Bhtml%3D1%3BabsoluteArcSize%3D1%3BarcSize%3D14%3BstrokeWidth%3D2%3BfillColor%3D%23f0a30a%3BfontColor%3D%23000000%3BstrokeColor%3D%23BD7000%3B%22%20vertex%3D%221%22%20parent%3D%2246%22%3E%3CmxGeometry%20x%3D%2220%22%20y%3D%22220%22%20width%3D%22140%22%20height%3D%2250%22%20as%3D%22geometry%22%2F%3E%3C%2FmxCell%3E%3CmxCell%20id%3D%2263%22%20value%3D%22SerialPortIOImplementation%20(external)%22%20style%3D%22swimlane%3Bshadow%3D0%3Bglass%3D0%3Bsketch%3D0%3BfontStyle%3D0%3BfillColor%3D%233B3B3B%3BstrokeColor%3D%237D7D7D%3BfontColor%3D%23DEDEDE%3BlabelBackgroundColor%3Dnone%3B%22%20vertex%3D%221%22%20parent%3D%2246%22%3E%3CmxGeometry%20x%3D%2220%22%20y%3D%22340%22%20width%3D%22250%22%20height%3D%2233%22%20as%3D%22geometry%22%2F%3E%3C%2FmxCell%3E%3CmxCell%20id%3D%2264%22%20value%3D%22Get%2FSet%20new%20data%20notification%20threshold%2Fevent%22%20style%3D%22rounded%3D1%3BwhiteSpace%3Dwrap%3Bhtml%3D1%3BabsoluteArcSize%3D1%3BarcSize%3D14%3BstrokeWidth%3D2%3BfillColor%3D%23f0a30a%3BfontColor%3D%23000000%3BstrokeColor%3D%23BD7000%3B%22%20vertex%3D%221%22%20parent%3D%2246%22%3E%3CmxGeometry%20x%3D%22180%22%20y%3D%22280%22%20width%3D%22140%22%20height%3D%2250%22%20as%3D%22geometry%22%2F%3E%3C%2FmxCell%3E%3CmxCell%20id%3D%2265%22%20value%3D%22Open%2Fclose%20serial%20port%20with%20specific%20configuration%22%20style%3D%22rounded%3D1%3BwhiteSpace%3Dwrap%3Bhtml%3D1%3BabsoluteArcSize%3D1%3BarcSize%3D14%3BstrokeWidth%3D2%3BfillColor%3D%23f0a30a%3BfontColor%3D%23000000%3BstrokeColor%3D%23BD7000%3BfontStyle%3D1%22%20vertex%3D%221%22%20parent%3D%2246%22%3E%3CmxGeometry%20x%3D%2220%22%20y%3D%22100%22%20width%3D%22140%22%20height%3D%2250%22%20as%3D%22geometry%22%2F%3E%3C%2FmxCell%3E%3CmxCell%20id%3D%2266%22%20value%3D%22%22%20style%3D%22endArrow%3Dclassic%3Bhtml%3D1%3BentryX%3D0.5%3BentryY%3D0%3BentryDx%3D0%3BentryDy%3D0%3BstrokeColor%3D%23858585%3B%22%20edge%3D%221%22%20parent%3D%2217%22%20target%3D%2221%22%3E%3CmxGeometry%20relative%3D%221%22%20as%3D%22geometry%22%3E%3CmxPoint%20x%3D%22955%22%20y%3D%22430%22%20as%3D%22sourcePoint%22%2F%3E%3CmxPoint%20x%3D%22540%22%20y%3D%22330%22%20as%3D%22targetPoint%22%2F%3E%3C%2FmxGeometry%3E%3C%2FmxCell%3E%3CmxCell%20id%3D%2267%22%20value%3D%22Notifies%22%20style%3D%22edgeLabel%3Bresizable%3D0%3Bhtml%3D1%3Balign%3Dcenter%3BverticalAlign%3Dmiddle%3BlabelBackgroundColor%3D%233B3B3B%3BfontColor%3D%23DEDEDE%3B%22%20connectable%3D%220%22%20vertex%3D%221%22%20parent%3D%2266%22%3E%3CmxGeometry%20relative%3D%221%22%20as%3D%22geometry%22%2F%3E%3C%2FmxCell%3E%3CmxCell%20id%3D%2268%22%20value%3D%22Notify%20about%20closing%20or%20opening%20the%20port%22%20style%3D%22rounded%3D1%3BwhiteSpace%3Dwrap%3Bhtml%3D1%3BabsoluteArcSize%3D1%3BarcSize%3D14%3BstrokeWidth%3D2%3BfillColor%3D%236a00ff%3BfontColor%3D%23ffffff%3BstrokeColor%3D%233700CC%3BfontStyle%3D1%22%20vertex%3D%221%22%20parent%3D%2217%22%3E%3CmxGeometry%20x%3D%22200%22%20y%3D%22170%22%20width%3D%22140%22%20height%3D%2250%22%20as%3D%22geometry%22%2F%3E%3C%2FmxCell%3E%3CmxCell%20id%3D%2269%22%20value%3D%22Make%20sure%20that%20the%20serial%20port%20has%20unique%20ID%2C%20bound%20to%20hardware!%22%20style%3D%22rounded%3D1%3BwhiteSpace%3Dwrap%3Bhtml%3D1%3BabsoluteArcSize%3D1%3BarcSize%3D14%3BstrokeWidth%3D2%3BfillColor%3D%23008a00%3BfontColor%3D%23ffffff%3BstrokeColor%3D%23005700%3B%22%20vertex%3D%221%22%20parent%3D%2217%22%3E%3CmxGeometry%20x%3D%22200%22%20y%3D%22240%22%20width%3D%22140%22%20height%3D%2250%22%20as%3D%22geometry%22%2F%3E%3C%2FmxCell%3E%3CmxCell%20id%3D%2270%22%20value%3D%22After%20DataConverter%20is%20set%2C%20connect%20SerialPortIO%20notification%20to%20it%22%20style%3D%22rounded%3D1%3BwhiteSpace%3Dwrap%3Bhtml%3D1%3BabsoluteArcSize%3D1%3BarcSize%3D14%3BstrokeWidth%3D2%3BfillColor%3D%2376608a%3BfontColor%3D%23ffffff%3BstrokeColor%3D%23432D57%3B%22%20vertex%3D%221%22%20parent%3D%2217%22%3E%3CmxGeometry%20x%3D%22200%22%20y%3D%22390%22%20width%3D%22170%22%20height%3D%2266.5%22%20as%3D%22geometry%22%2F%3E%3C%2FmxCell%3E%3CmxCell%20id%3D%2271%22%20value%3D%22Before%20DataConverter%20is%20set%2C%20disconnect%20SerialPortIO%20notifications%20from%20it%22%20style%3D%22rounded%3D1%3BwhiteSpace%3Dwrap%3Bhtml%3D1%3BabsoluteArcSize%3D1%3BarcSize%3D14%3BstrokeWidth%3D2%3BfillColor%3D%2376608a%3BfontColor%3D%23ffffff%3BstrokeColor%3D%23432D57%3B%22%20vertex%3D%221%22%20parent%3D%2217%22%3E%3CmxGeometry%20x%3D%22200%22%20y%3D%22310%22%20width%3D%22170%22%20height%3D%2266.5%22%20as%3D%22geometry%22%2F%3E%3C%2FmxCell%3E%3CmxCell%20id%3D%2272%22%20value%3D%22Get%20a%20copy%20of%20buffered%20bytes%2Fvalues%22%20style%3D%22rounded%3D1%3BwhiteSpace%3Dwrap%3Bhtml%3D1%3BabsoluteArcSize%3D1%3BarcSize%3D14%3BstrokeWidth%3D2%3BfillColor%3D%23f0a30a%3BfontColor%3D%23000000%3BstrokeColor%3D%23BD7000%3B%22%20vertex%3D%221%22%20parent%3D%2217%22%3E%3CmxGeometry%20x%3D%2230%22%20y%3D%22230%22%20width%3D%22140%22%20height%3D%2250%22%20as%3D%22geometry%22%2F%3E%3C%2FmxCell%3E%3CmxCell%20id%3D%2273%22%20value%3D%22Get%20the%20amount%20of%20currently%20buffered%20bytes%2Fvalues%22%20style%3D%22rounded%3D1%3BwhiteSpace%3Dwrap%3Bhtml%3D1%3BabsoluteArcSize%3D1%3BarcSize%3D14%3BstrokeWidth%3D2%3BfillColor%3D%23f0a30a%3BfontColor%3D%23000000%3BstrokeColor%3D%23BD7000%3B%22%20vertex%3D%221%22%20parent%3D%2217%22%3E%3CmxGeometry%20x%3D%2230%22%20y%3D%22290%22%20width%3D%22140%22%20height%3D%2250%22%20as%3D%22geometry%22%2F%3E%3C%2FmxCell%3E%3CmxCell%20id%3D%2274%22%20value%3D%22Get%20information%20about%20currently%20used%20data%20converter%22%20style%3D%22rounded%3D1%3BwhiteSpace%3Dwrap%3Bhtml%3D1%3BabsoluteArcSize%3D1%3BarcSize%3D14%3BstrokeWidth%3D2%3BfillColor%3D%23f0a30a%3BfontColor%3D%23000000%3BstrokeColor%3D%23BD7000%3B%22%20vertex%3D%221%22%20parent%3D%2217%22%3E%3CmxGeometry%20x%3D%2229%22%20y%3D%22350%22%20width%3D%22141%22%20height%3D%2250%22%20as%3D%22geometry%22%2F%3E%3C%2FmxCell%3E%3CmxCell%20id%3D%2275%22%20value%3D%22Notify%20about%20new%20byte%20from%20serial%20port%22%20style%3D%22rounded%3D1%3BwhiteSpace%3Dwrap%3Bhtml%3D1%3BabsoluteArcSize%3D1%3BarcSize%3D14%3BstrokeWidth%3D2%3BfillColor%3D%236a00ff%3BfontColor%3D%23ffffff%3BstrokeColor%3D%233700CC%3B%22%20vertex%3D%221%22%20parent%3D%2217%22%3E%3CmxGeometry%20x%3D%22200%22%20y%3D%22110%22%20width%3D%22140%22%20height%3D%2250%22%20as%3D%22geometry%22%2F%3E%3C%2FmxCell%3E%3CmxCell%20id%3D%2276%22%20value%3D%22Get%2FSet%20notification%20threshold%22%20style%3D%22rounded%3D1%3BwhiteSpace%3Dwrap%3Bhtml%3D1%3BabsoluteArcSize%3D1%3BarcSize%3D14%3BstrokeWidth%3D2%3BfillColor%3D%23f0a30a%3BfontColor%3D%23000000%3BstrokeColor%3D%23BD7000%3B%22%20vertex%3D%221%22%20parent%3D%2217%22%3E%3CmxGeometry%20x%3D%2230%22%20y%3D%22410%22%20width%3D%22140%22%20height%3D%2250%22%20as%3D%22geometry%22%2F%3E%3C%2FmxCell%3E%3CmxCell%20id%3D%2277%22%20value%3D%22Open%2Fclose%20serial%20port%20with%20specific%20configuration%22%20style%3D%22rounded%3D1%3BwhiteSpace%3Dwrap%3Bhtml%3D1%3BabsoluteArcSize%3D1%3BarcSize%3D14%3BstrokeWidth%3D2%3BfillColor%3D%23f0a30a%3BfontColor%3D%23000000%3BstrokeColor%3D%23BD7000%3BfontStyle%3D0%22%20vertex%3D%221%22%20parent%3D%2217%22%3E%3CmxGeometry%20x%3D%2229%22%20y%3D%2250%22%20width%3D%22140%22%20height%3D%2250%22%20as%3D%22geometry%22%2F%3E%3C%2FmxCell%3E%3CmxCell%20id%3D%2278%22%20value%3D%22Containers%20marked%20with%20the%20same%2C%20non-default%2C%20colour%20are%20instances%20of%20the%20same%20class.%26lt%3Bbr%26gt%3B%26lt%3Bb%26gt%3BBold%26lt%3B%2Fb%26gt%3B%20functions%20and%20notifications%20are%20the%20original%20ones%20in%20hierarchy.%20Non-bold%20functions%20and%20notifications%20indicate%20that%20specific%20function%20or%20notification%20is%20accessible%20from%20an%20object's%20scope%2C%20but%20they%20call%2C%20or%20are%20caused%20by%2C%26amp%3Bnbsp%3B%26lt%3Bb%26gt%3Bbold%26lt%3B%2Fb%26gt%3B%20ones.%26lt%3Bbr%26gt%3BNormal%2C%20non-bold%20names%20of%20classes%2Fmodules%20indicate%20that%20they%20are%20external%20dependencies.%20%26lt%3Bi%26gt%3BItalic%26lt%3B%2Fi%26gt%3B%26amp%3Bnbsp%3Bnames%20of%20classes%20mean%20that%20they%20have%20abstract%20implementation%20(to-be-done%20outside%20of%20the%20module)%22%20style%3D%22text%3Bhtml%3D1%3BstrokeColor%3Dnone%3BfillColor%3D%233D3D3D%3Balign%3Dcenter%3BverticalAlign%3Dmiddle%3BwhiteSpace%3Dwrap%3Brounded%3D0%3BfontColor%3D%23DEDEDE%3B%22%20vertex%3D%221%22%20parent%3D%221%22%3E%3CmxGeometry%20x%3D%22990%22%20y%3D%2212.5%22%20width%3D%22730%22%20height%3D%2285%22%20as%3D%22geometry%22%2F%3E%3C%2FmxCell%3E%3CmxCell%20id%3D%2279%22%20value%3D%22Internal%20reactions%20to%20internal%20events%22%20style%3D%22rounded%3D1%3BwhiteSpace%3Dwrap%3Bhtml%3D1%3BabsoluteArcSize%3D1%3BarcSize%3D14%3BstrokeWidth%3D2%3BfillColor%3D%23647687%3BfontColor%3D%23ffffff%3BstrokeColor%3D%23314354%3B%22%20vertex%3D%221%22%20parent%3D%221%22%3E%3CmxGeometry%20x%3D%22500%22%20y%3D%2230%22%20width%3D%22140%22%20height%3D%2250%22%20as%3D%22geometry%22%2F%3E%3C%2FmxCell%3E%3CmxCell%20id%3D%2280%22%20value%3D%22%22%20style%3D%22endArrow%3Dclassic%3Bhtml%3D1%3BstrokeColor%3D%23858585%3B%22%20edge%3D%221%22%20parent%3D%221%22%3E%3CmxGeometry%20relative%3D%221%22%20as%3D%22geometry%22%3E%3CmxPoint%20x%3D%22490.0000000000002%22%20y%3D%22270%22%20as%3D%22sourcePoint%22%2F%3E%3CmxPoint%20x%3D%22370%22%20y%3D%22270%22%20as%3D%22targetPoint%22%2F%3E%3C%2FmxGeometry%3E%3C%2FmxCell%3E%3CmxCell%20id%3D%2281%22%20value%3D%22Notifies%22%20style%3D%22edgeLabel%3Bresizable%3D0%3Bhtml%3D1%3Balign%3Dcenter%3BverticalAlign%3Dmiddle%3BlabelBackgroundColor%3D%233B3B3B%3BfontColor%3D%23DEDEDE%3B%22%20connectable%3D%220%22%20vertex%3D%221%22%20parent%3D%2280%22%3E%3CmxGeometry%20relative%3D%221%22%20as%3D%22geometry%22%2F%3E%3C%2FmxCell%3E%3CmxCell%20id%3D%2282%22%20value%3D%22Internal%20reactions%20to%20external%20events%22%20style%3D%22rounded%3D1%3BwhiteSpace%3Dwrap%3Bhtml%3D1%3BabsoluteArcSize%3D1%3BarcSize%3D14%3BstrokeWidth%3D2%3BfillColor%3D%2376608a%3BfontColor%3D%23ffffff%3BstrokeColor%3D%23432D57%3B%22%20vertex%3D%221%22%20parent%3D%221%22%3E%3CmxGeometry%20x%3D%22660%22%20y%3D%2230%22%20width%3D%22140%22%20height%3D%2250%22%20as%3D%22geometry%22%2F%3E%3C%2FmxCell%3E%3CmxCell%20id%3D%2283%22%20value%3D%22%22%20style%3D%22endArrow%3Dclassic%3Bhtml%3D1%3BstrokeColor%3D%23858585%3B%22%20edge%3D%221%22%20parent%3D%221%22%3E%3CmxGeometry%20relative%3D%221%22%20as%3D%22geometry%22%3E%3CmxPoint%20x%3D%22370%22%20y%3D%22190%22%20as%3D%22sourcePoint%22%2F%3E%3CmxPoint%20x%3D%22490.0000000000002%22%20y%3D%22190%22%20as%3D%22targetPoint%22%2F%3E%3C%2FmxGeometry%3E%3C%2FmxCell%3E%3CmxCell%20id%3D%2284%22%20value%3D%22Deletes%22%20style%3D%22edgeLabel%3Bresizable%3D0%3Bhtml%3D1%3Balign%3Dcenter%3BverticalAlign%3Dmiddle%3BlabelBackgroundColor%3D%233B3B3B%3BfontColor%3D%23DEDEDE%3B%22%20connectable%3D%220%22%20vertex%3D%221%22%20parent%3D%2283%22%3E%3CmxGeometry%20relative%3D%221%22%20as%3D%22geometry%22%2F%3E%3C%2FmxCell%3E%3CmxCell%20id%3D%2285%22%20value%3D%22%22%20style%3D%22endArrow%3Dclassic%3Bhtml%3D1%3BstrokeColor%3D%23858585%3B%22%20edge%3D%221%22%20parent%3D%221%22%3E%3CmxGeometry%20relative%3D%221%22%20as%3D%22geometry%22%3E%3CmxPoint%20x%3D%22370%22%20y%3D%22230%22%20as%3D%22sourcePoint%22%2F%3E%3CmxPoint%20x%3D%22490.0000000000002%22%20y%3D%22230%22%20as%3D%22targetPoint%22%2F%3E%3C%2FmxGeometry%3E%3C%2FmxCell%3E%3CmxCell%20id%3D%2286%22%20value%3D%22Gives%20access%20to%22%20style%3D%22edgeLabel%3Bresizable%3D0%3Bhtml%3D1%3Balign%3Dcenter%3BverticalAlign%3Dmiddle%3BlabelBackgroundColor%3D%233B3B3B%3BfontColor%3D%23DEDEDE%3B%22%20connectable%3D%220%22%20vertex%3D%221%22%20parent%3D%2285%22%3E%3CmxGeometry%20relative%3D%221%22%20as%3D%22geometry%22%2F%3E%3C%2FmxCell%3E%3CmxCell%20id%3D%2287%22%20value%3D%22%22%20style%3D%22endArrow%3Dclassic%3Bhtml%3D1%3BstrokeColor%3D%23858585%3B%22%20edge%3D%221%22%20parent%3D%221%22%3E%3CmxGeometry%20relative%3D%221%22%20as%3D%22geometry%22%3E%3CmxPoint%20x%3D%22370%22%20y%3D%22210%22%20as%3D%22sourcePoint%22%2F%3E%3CmxPoint%20x%3D%22490.0000000000002%22%20y%3D%22210%22%20as%3D%22targetPoint%22%2F%3E%3C%2FmxGeometry%3E%3C%2FmxCell%3E%3CmxCell%20id%3D%2288%22%20value%3D%22Modifies%22%20style%3D%22edgeLabel%3Bresizable%3D0%3Bhtml%3D1%3Balign%3Dcenter%3BverticalAlign%3Dmiddle%3BlabelBackgroundColor%3D%233B3B3B%3BfontColor%3D%23DEDEDE%3B%22%20connectable%3D%220%22%20vertex%3D%221%22%20parent%3D%2287%22%3E%3CmxGeometry%20relative%3D%221%22%20as%3D%22geometry%22%2F%3E%3C%2FmxCell%3E%3CmxCell%20id%3D%2289%22%20value%3D%22Implementation%20notes%20and%20ideas%22%20style%3D%22rounded%3D1%3BwhiteSpace%3Dwrap%3Bhtml%3D1%3BabsoluteArcSize%3D1%3BarcSize%3D14%3BstrokeWidth%3D2%3BfillColor%3D%23a20025%3BstrokeColor%3D%236F0000%3BfontColor%3D%23ffffff%3B%22%20vertex%3D%221%22%20parent%3D%221%22%3E%3CmxGeometry%20x%3D%22820%22%20y%3D%2230%22%20width%3D%22140%22%20height%3D%2250%22%20as%3D%22geometry%22%2F%3E%3C%2FmxCell%3E%3CmxCell%20id%3D%2290%22%20value%3D%22Class%22%20style%3D%22swimlane%3BfillColor%3D%233B3B3B%3BstrokeColor%3D%237D7D7D%3BfontColor%3D%23DEDEDE%3BlabelBackgroundColor%3Dnone%3B%22%20vertex%3D%221%22%20parent%3D%221%22%3E%3CmxGeometry%20x%3D%22140%22%20y%3D%22685%22%20width%3D%22200%22%20height%3D%22200%22%20as%3D%22geometry%22%2F%3E%3C%2FmxCell%3E%3C%2Froot%3E%3C%2FmxGraphModel%3E&lt;/span&gt;" style="text;html=1;strokeColor=none;fillColor=none;align=center;verticalAlign=middle;whiteSpace=wrap;rounded=0;labelBackgroundColor=none;fontFamily=Helvetica;fontSize=12;fontColor=#DEDEDE;startSize=23;" parent="1" vertex="1">
                    <mxGeometry x="130" y="1010" width="60" height="30" as="geometry"/>
                </mxCell>
            </root>
        </mxGraphModel>
    </diagram>
</mxfile>